HIERARCHY
ROOT Hips
{
 OFFSET 0.000000 0.000000 0.000000
 CHANNELS 6 Xposition Yposition Zposition Yrotation Xrotation Zrotation
 JOINT Chest
 {
  OFFSET 0.000000 9.585900 0.002600
  CHANNELS 3 Yrotation Xrotation Zrotation
  JOINT Chest2
  {
   OFFSET 0.000000 9.601200 -0.005300
   CHANNELS 3 Yrotation Xrotation Zrotation
   JOINT Chest3
   {
    OFFSET 0.000000 9.561800 0.000000
    CHANNELS 3 Yrotation Xrotation Zrotation
    JOINT Chest4
    {
     OFFSET 0.000000 9.552100 0.000000
     CHANNELS 3 Yrotation Xrotation Zrotation
     JOINT Neck
     {
      OFFSET 0.000000 14.453000 0.000000
      CHANNELS 3 Yrotation Xrotation Zrotation
      JOINT Head
      {
       OFFSET 0.000000 8.936500 -0.011300
       CHANNELS 3 Yrotation Xrotation Zrotation
       End Site
       {
        OFFSET 0.000000 17.073600 -0.006000
       }
      }
     }
     JOINT RightCollar
     {
      OFFSET -2.921100 9.558500 0.000000
      CHANNELS 3 Yrotation Xrotation Zrotation
      JOINT RightShoulder
      {
       OFFSET -13.519700 0.000000 0.000000
       CHANNELS 3 Yrotation Xrotation Zrotation
       JOINT RightElbow
       {
        OFFSET 0.000000 -29.696600 0.000000
        CHANNELS 3 Yrotation Xrotation Zrotation
        JOINT RightWrist
        {
         OFFSET 0.000000 -24.004700 0.000000
         CHANNELS 3 Yrotation Xrotation Zrotation
         End Site
         {
          OFFSET 0.000000 -17.728500 0.000000
         }
        }
       }
      }
     }
     JOINT LeftCollar
     {
      OFFSET 2.921100 9.558500 0.000000
      CHANNELS 3 Yrotation Xrotation Zrotation
      JOINT LeftShoulder
      {
       OFFSET 13.519700 0.000000 0.000000
       CHANNELS 3 Yrotation Xrotation Zrotation
       JOINT LeftElbow
       {
        OFFSET 0.000000 -29.696600 0.000000
        CHANNELS 3 Yrotation Xrotation Zrotation
        JOINT LeftWrist
        {
         OFFSET 0.000000 -24.004700 0.000000
         CHANNELS 3 Yrotation Xrotation Zrotation
         End Site
         {
          OFFSET 0.000000 -17.728500 0.000000
         }
        }
       }
      }
     }
    }
   }
  }
 }
 JOINT RightHip
 {
  OFFSET -7.771700 -0.012900 -0.001300
  CHANNELS 3 Yrotation Xrotation Zrotation
  JOINT RightKnee
  {
   OFFSET 0.000000 -40.869800 0.001200
   CHANNELS 3 Yrotation Xrotation Zrotation
   JOINT RightAnkle
   {
    OFFSET 0.000000 -39.717900 0.002100
    CHANNELS 3 Yrotation Xrotation Zrotation
    JOINT RightToe
    {
     OFFSET 0.000000 -4.965400 11.033500
     CHANNELS 3 Yrotation Xrotation Zrotation
     End Site
     {
      OFFSET 0.000000 -1.423100 5.872300
     }
    }
   }
  }
 }
 JOINT LeftHip
 {
  OFFSET 7.771700 -0.012900 -0.001300
  CHANNELS 3 Yrotation Xrotation Zrotation
  JOINT LeftKnee
  {
   OFFSET 0.000000 -40.869800 0.001200
   CHANNELS 3 Yrotation Xrotation Zrotation
   JOINT LeftAnkle
   {
    OFFSET 0.000000 -39.717900 0.002100
    CHANNELS 3 Yrotation Xrotation Zrotation
    JOINT LeftToe
    {
     OFFSET 0.000000 -4.965400 11.033500
     CHANNELS 3 Yrotation Xrotation Zrotation
     End Site
     {
      OFFSET 0.000000 -1.423100 5.872300
     }
    }
   }
  }
 }
}
MOTION
Frames: 15
Frame Time: 0.008333
0.000000 85.388000 0.000000 0.000000 -5.767877 0.000000 0.000000 11.653817 0.000000 0.000000 -5.885947 0.000000 0.000000 -0.000000 0.000000 0.000000 -0.000000 0.000000 0.000000 12.528835 0.000000 0.000000 0.711642 0.000000 0.000000 -0.000000 0.000000 0.000000 0.000000 -90.000000 0.000000 -2.309062 0.000000 0.000000 2.309062 0.000000 0.000000 -0.000000 0.000000 0.000000 -0.000000 90.000000 0.000000 -2.309062 0.000000 0.000000 2.309062 0.000000 0.000000 8.520406 0.000000 0.000000 1.905762 0.000000 -0.000000 -4.658285 0.000000 0.000000 -0.000000 0.000000 0.000000 8.520406 0.000000 0.000000 1.905762 0.000000 -0.000000 -4.658285 0.000000 0.000000 -0.000000 0.000000
-200.238483 58.014384 28.066668 172.516438 -51.039284 -3.653547 5.160791 21.428209 3.329942 2.679830 12.265282 1.679732 3.423240 15.354409 2.190259 2.679606 12.261219 1.681140 -1.908662 14.528341 2.007222 -4.339933 -8.694467 4.483651 1.308873 4.805890 0.442959 -13.037875 -15.987959 -6.829639 -121.253694 -53.522919 150.261169 -5.780491 -18.062843 -28.111931 -7.932045 2.408889 -0.320779 16.006707 -15.243882 5.281921 91.025803 -46.693148 -129.629855 14.019760 -14.578208 3.222855 3.748213 -21.397037 0.147209 -36.758993 73.156346 -38.159542 5.877482 -12.416223 9.354766 -0.014676 -0.139058 -0.010363 -3.159637 -20.045205 11.602679 53.433635 79.442501 52.936949 4.678106 -15.726245 -16.691494 0.055797 0.108652 0.013850
-200.238738 58.014520 28.066637 172.523405 -51.042531 -3.659988 5.160803 21.407667 3.343073 2.672470 12.274076 1.677117 3.418415 15.328834 2.201269 2.677897 12.296690 1.667351 -1.881322 14.470182 2.008844 -4.286061 -8.773596 4.461381 1.337072 4.773253 0.464416 -12.780170 -16.048547 -6.949025 -121.571098 -53.695224 150.447638 -5.342105 -17.530319 -27.698630 -7.946552 2.355314 -0.352981 15.762200 -15.297971 5.375133 91.909105 -47.159420 -130.247197 13.565783 -14.264039 3.212054 3.744402 -21.393797 0.151721 -36.767844 73.157710 -38.170455 5.876108 -12.416829 9.356528 0.005183 -0.137111 -0.005091 -3.161983 -20.042515 11.603084 53.435018 79.443035 52.939149 4.692489 -15.727972 -16.695658 0.052775 0.112026 0.017306
-200.239811 58.014896 28.066180 172.533735 -51.048962 -3.664131 5.153003 21.403164 3.344438 2.670412 12.275028 1.677585 3.415796 15.330738 2.200461 2.672254 12.282865 1.673368 -1.865249 14.465772 1.999058 -4.216295 -8.840876 4.444439 1.392364 4.728891 0.498868 -12.524494 -16.084838 -7.088106 -121.888853 -53.880046 150.641071 -4.905815 -16.915850 -27.291631 -7.958541 2.316113 -0.398939 15.506394 -15.344740 5.479706 92.723844 -47.601488 -130.838036 13.090717 -13.935803 3.221169 3.740005 -21.387145 0.149421 -36.774650 73.160123 -38.177805 5.870090 -12.416199 9.356730 0.011202 -0.138062 -0.002780 -3.160922 -20.036666 11.602381 53.432900 79.441103 52.937494 4.684485 -15.728981 -16.693879 0.055448 0.111984 0.020589
-200.241143 58.015712 28.065262 172.541300 -51.059879 -3.664420 5.146437 21.409195 3.341362 2.667220 12.268308 1.681490 3.415644 15.335027 2.198398 2.669187 12.271459 1.678444 -1.850929 14.463040 1.991300 -4.143682 -8.865896 4.433403 1.492792 4.626511 0.582703 -12.287271 -16.074219 -7.278459 -122.183359 -54.080589 150.809889 -4.450728 -16.223587 -26.869622 -7.970380 2.287986 -0.435784 15.237349 -15.395517 5.582081 93.500833 -48.033132 -131.417129 12.623255 -13.583326 3.248345 3.739649 -21.376148 0.146092 -36.784067 73.161021 -38.187290 5.872628 -12.412751 9.353369 0.006079 -0.142424 0.001296 -3.161580 -20.025524 11.597550 53.423299 79.443125 52.920912 4.692654 -15.729473 -16.685510 0.042020 0.113526 0.017778
-200.243419 58.015522 28.064861 172.539991 -51.065003 -3.652731 5.141914 21.409461 3.331095 2.663959 12.259686 1.688374 3.409567 15.322839 2.207783 2.665407 12.269271 1.682561 -1.823991 14.465756 1.975240 -4.079967 -8.841477 4.425214 1.551777 4.584036 0.619004 -12.014184 -16.099382 -7.424025 -122.434544 -54.293845 150.937948 -3.973527 -15.456981 -26.402853 -7.971234 2.299225 -0.472164 14.952789 -15.462991 5.668537 94.237796 -48.453422 -131.971453 12.171167 -13.212679 3.283129 3.744874 -21.371087 0.135736 -36.787376 73.161507 -38.190128 5.856493 -12.411434 9.350473 0.019145 -0.141232 0.006873 -3.149109 -20.022087 11.586207 53.416729 79.446230 52.913977 4.688434 -15.733099 -16.678897 0.040702 0.114455 0.018333
-200.245072 58.014906 28.064837 172.542827 -51.067797 -3.648345 5.134533 21.404330 3.329787 2.663411 12.256309 1.689046 3.408254 15.322063 2.210728 2.664293 12.268685 1.684963 -1.792414 14.471424 1.977771 -4.019551 -8.790244 4.421312 1.564185 4.580409 0.622984 -11.719901 -16.163778 -7.516573 -122.605067 -54.515088 151.008420 -3.468900 -14.638002 -25.864500 -7.990505 2.252131 -0.518099 14.664293 -15.483738 5.797653 94.904682 -48.851709 -132.484991 11.716198 -12.837123 3.316556 3.746401 -21.367722 0.130498 -36.804585 73.158731 -38.207959 5.850658 -12.412219 9.349838 0.025653 -0.138939 0.010585 -3.142419 -20.021294 11.582707 53.404070 79.446935 52.897812 4.692194 -15.730892 -16.678849 0.026866 0.114761 0.023513
-200.245338 58.015754 28.063787 172.546894 -51.083052 -3.652413 5.130197 21.408777 3.335596 2.664646 12.252686 1.690683 3.406902 15.329802 2.209951 2.664232 12.260165 1.691065 -1.760633 14.492953 1.984493 -3.956346 -8.708238 4.421813 1.642825 4.473009 0.718205 -11.472337 -16.138941 -7.720080 -122.725567 -54.744536 151.059836 -2.962456 -13.782648 -25.243650 -8.045378 2.160343 -0.582131 14.401392 -15.454287 5.964799 95.478774 -49.222954 -132.954341 11.238072 -12.460235 3.342309 3.744108 -21.351429 0.139742 -36.855930 73.153092 -38.261540 5.850804 -12.418631 9.346777 0.002497 -0.136639 0.014230 -3.140357 -20.004760 11.588783 53.377876 79.451226 52.870350 4.690295 -15.731760 -16.678237 0.038544 0.113114 0.025614
-200.246000 58.017798 28.061592 172.564606 -51.108769 -3.663830 5.120606 21.404698 3.342879 2.661961 12.267880 1.689931 3.405650 15.337688 2.209746 2.662979 12.255708 1.694523 -1.685710 14.564859 2.017141 -3.927985 -8.640525 4.418934 1.690874 4.399467 0.779091 -11.215401 -16.139605 -7.881912 -122.854260 -54.987166 151.145278 -2.490803 -12.889313 -24.548408 -8.059400 2.145223 -0.603368 14.115326 -15.483760 6.082114 95.963514 -49.578167 -133.382463 10.752749 -12.086496 3.343905 3.735001 -21.321626 0.143853 -36.894893 73.147392 -38.309161 5.863451 -12.424369 9.354770 0.011613 -0.137686 0.013475 -3.137935 -19.981485 11.594492 53.344213 79.459565 52.839779 4.677759 -15.725496 -16.674714 0.049154 0.103734 0.028927
-200.247126 58.017249 28.061356 172.565755 -51.117331 -3.660872 5.119519 21.406227 3.341405 2.664072 12.259821 1.695349 3.399589 15.337108 2.211350 2.666157 12.253702 1.697564 -1.662393 14.615354 2.023913 -3.851920 -8.506406 4.430692 1.719926 4.347434 0.822717 -10.958164 -16.148708 -8.026612 -122.999999 -55.245015 151.268678 -2.055808 -11.957122 -23.799063 -8.077253 2.135580 -0.627256 13.835752 -15.506410 6.208220 96.370726 -49.930186 -133.775603 10.288417 -11.716853 3.302383 3.745720 -21.313209 0.138962 -36.913711 73.145693 -38.321221 5.861583 -12.425227 9.354995 0.010449 -0.136238 0.013474 -3.135040 -19.974040 11.592555 53.355818 79.459547 52.843382 4.689720 -15.724373 -16.669640 0.037244 0.106989 0.024568
-200.248668 58.016328 28.061289 172.569216 -51.125169 -3.656808 5.116848 21.407389 3.337762 2.664666 12.259529 1.697502 3.398696 15.327596 2.215754 2.670937 12.246896 1.705434 -1.665298 14.650732 2.016275 -3.751129 -8.316116 4.451922 1.739761 4.299818 0.859043 -10.708956 -16.155386 -8.168297 -123.135791 -55.513797 151.402296 -1.634747 -10.994500 -23.017872 -8.143053 2.057052 -0.681665 13.597504 -15.457312 6.387788 96.706520 -50.278881 -134.139897 9.853207 -11.343742 3.214610 3.747226 -21.304976 0.132425 -36.912486 73.146628 -38.324740 5.869322 -12.429493 9.357372 0.008917 -0.133987 0.012760 -3.126316 -19.967220 11.591730 53.331199 79.460705 52.818233 4.672194 -15.725018 -16.664417 0.044140 0.106858 0.026879
-200.249535 58.014685 28.061941 172.579447 -51.128898 -3.661638 5.123734 21.385011 3.356144 2.650688 12.278721 1.687430 3.402229 15.317218 2.224044 2.670155 12.245550 1.709527 -1.629727 14.726983 2.031467 -3.677496 -8.137503 4.469738 1.753743 4.253264 0.891120 -10.466756 -16.169113 -8.304065 -123.230181 -55.787295 151.519055 -1.205804 -10.008653 -22.221355 -8.177654 2.028675 -0.712655 13.343350 -15.449795 6.544884 96.970346 -50.622476 -134.469005 9.443409 -10.974129 3.081056 3.743688 -21.302208 0.131582 -36.914272 73.145345 -38.328946 5.856838 -12.425589 9.361060 0.001959 -0.134364 0.009161 -3.116484 -19.969079 11.598018 53.299245 79.467840 52.791239 4.655634 -15.723951 -16.657630 0.056128 0.104441 0.029373
-200.251140 58.013784 28.061845 172.592540 -51.139997 -3.662532 5.118796 21.384896 3.356734 2.651280 12.275393 1.692609 3.401241 15.315350 2.228183 2.664550 12.249626 1.708968 -1.543542 14.879992 2.080931 -3.637217 -8.001493 4.480948 1.764406 4.213953 0.922016 -10.225272 -16.195726 -8.433660 -123.267331 -56.061548 151.606220 -0.754787 -8.992074 -21.418925 -8.200212 2.010056 -0.734555 13.082848 -15.449103 6.707737 97.156533 -50.964006 -134.748828 9.046070 -10.626075 2.897592 3.748674 -21.291759 0.123622 -36.945721 73.146304 -38.362697 5.861384 -12.428888 9.371362 -0.003986 -0.136473 0.007204 -3.113864 -19.961370 11.593461 53.300061 79.467886 52.790202 4.655751 -15.722432 -16.657826 0.056074 0.105375 0.032912
-200.252703 58.013735 28.061107 172.610872 -51.158616 -3.666015 5.109320 21.393029 3.354479 2.651270 12.273510 1.697256 3.399792 15.313162 2.232250 2.657174 12.261707 1.702254 -1.476615 15.011256 2.126665 -3.568440 -7.801748 4.505535 1.769723 4.195465 0.937990 -9.982977 -16.248334 -8.536995 -123.243914 -56.333758 151.657971 -0.264314 -7.929981 -20.608358 -8.233447 1.957254 -0.751834 12.831602 -15.420691 6.895258 97.261475 -51.302931 -134.971297 8.644977 -10.300875 2.672868 3.746279 -21.272678 0.114732 -36.956264 73.150787 -38.374170 5.855960 -12.430118 9.375870 -0.003730 -0.139249 0.005115 -3.118579 -19.943607 11.583682 53.336190 79.459671 52.820927 4.648164 -15.722818 -16.653076 0.057100 0.106814 0.030052
-200.252464 58.012567 28.061775 172.617097 -51.169183 -3.670834 5.108051 21.390430 3.361881 2.654955 12.260950 1.709103 3.396057 15.327101 2.231279 2.656361 12.261237 1.706944 -1.434141 15.149081 2.157158 -3.483143 -7.543571 4.543044 1.765595 4.189360 0.941484 -9.743543 -16.301161 -8.638217 -123.157011 -56.595251 151.665400 0.293532 -6.814822 -19.778306 -8.294049 1.889174 -0.783516 12.586610 -15.371648 7.105379 97.281866 -51.631068 -135.127972 8.225631 -9.979170 2.427855 3.745975 -21.263647 0.116686 -36.962333 73.153826 -38.380468 5.861588 -12.432461 9.377351 -0.000279 -0.139624 0.003959 -3.119005 -19.936651 11.591220 53.399706 79.454828 52.879070 4.630969 -15.725947 -16.650361 0.059638 0.106502 0.030633
